<svg xmlns="http://www.w3.org/2000/svg" version="1.1" xmlns:xlink="http://www.w3.org/1999/xlink" xmlns:svgjs="http://svgjs.dev/svgjs" viewBox="0 0 13.5870705376071 8.867127567042282"><g transform="matrix(1,0,0,1,0.9105191555223016,6.855608411519981)"><g><path d=" M 0.663 0.009000000000000119 Q 0.843 0.009000000000000119 0.97575 0.07574999999999998 Q 1.1085 0.14250000000000007 1.1812500000000001 0.264 Q 1.254 0.38550000000000006 1.254 0.555 Q 1.254 0.7230000000000001 1.1812500000000001 0.8452500000000001 Q 1.1085 0.9675 0.97575 1.0342500000000001 Q 0.843 1.101 0.663 1.101 Q 0.483 1.101 0.35025 1.0342500000000001 Q 0.2175 0.9675 0.1455 0.8460000000000001 Q 0.0735 0.7245000000000001 0.0735 0.555 Q 0.0735 0.387 0.1455 0.26475000000000004 Q 0.2175 0.14250000000000007 0.35025 0.07574999999999998 Q 0.483 0.009000000000000119 0.663 0.009000000000000119 M 0.663 1.038 Q 0.7695 1.038 0.84675 0.97875 Q 0.924 0.9195000000000001 0.96525 0.8115000000000001 Q 1.0065 0.7035 1.0065 0.555 Q 1.0065 0.4065000000000001 0.96525 0.2985000000000001 Q 0.924 0.1905 0.84675 0.1312500000000001 Q 0.7695 0.07200000000000006 0.663 0.07200000000000006 Q 0.558 0.07200000000000006 0.48075 0.1312500000000001 Q 0.4035 0.1905 0.3615 0.2985000000000001 Q 0.3195 0.4065000000000001 0.3195 0.555 Q 0.3195 0.7035 0.3615 0.8115000000000001 Q 0.4035 0.9195000000000001 0.48075 0.97875 Q 0.558 1.038 0.663 1.038 M 1.6800131835937502 0.030000000000000027 L 1.87351318359375 0.030000000000000027 Q 1.94101318359375 0.030000000000000027 2.00551318359375 0.04500000000000015 Q 2.0700131835937503 0.06000000000000005 2.12026318359375 0.09300000000000008 Q 2.17051318359375 0.126 2.20051318359375 0.18000000000000005 Q 2.23051318359375 0.2340000000000001 2.23051318359375 0.3135 Q 2.23051318359375 0.37650000000000006 2.20426318359375 0.4387500000000001 Q 2.17801318359375 0.5010000000000001 2.12401318359375 0.54525 Q 2.0700131835937503 0.5895000000000001 1.9845131835937502 0.5985 Q 2.03251318359375 0.6135 2.0722631835937504 0.6525000000000001 Q 2.11201318359375 0.6915 2.13751318359375 0.7305 Q 2.1390131835937503 0.7335 2.15476318359375 0.7575000000000001 Q 2.17051318359375 0.7815000000000001 2.19376318359375 0.8167500000000001 Q 2.21701318359375 0.8520000000000001 2.24251318359375 0.8880000000000001 Q 2.2680131835937503 0.924 2.28901318359375 0.9510000000000001 Q 2.32201318359375 0.9915 2.34901318359375 1.01625 Q 2.3760131835937504 1.0410000000000001 2.40601318359375 1.0522500000000001 Q 2.43601318359375 1.0635000000000001 2.47501318359375 1.0650000000000002 L 2.47501318359375 1.08 L 2.3280131835937503 1.08 Q 2.24701318359375 1.08 2.18101318359375 1.0650000000000002 Q 2.1150131835937502 1.05 2.06401318359375 1.01625 Q 2.01301318359375 0.9825 1.9755131835937503 0.924 Q 1.9635131835937503 0.906 1.9492631835937502 0.8782500000000001 Q 1.93501318359375 0.8505 1.9200131835937502 0.8190000000000001 Q 1.9050131835937503 0.7875000000000001 1.8907631835937502 0.7582500000000001 Q 1.87651318359375 0.7290000000000001 1.8660131835937501 0.7050000000000001 Q 1.8555131835937502 0.681 1.85101318359375 0.6675 Q 1.8315131835937501 0.6195 1.80526318359375 0.5955000000000001 Q 1.7790131835937502 0.5715 1.7490131835937501 0.5670000000000001 L 1.7490131835937501 0.552 Q 1.75351318359375 0.552 1.7670131835937501 0.552 Q 1.78051318359375 0.552 1.7955131835937501 0.552 Q 1.83601318359375 0.552 1.87426318359375 0.5355000000000001 Q 1.91251318359375 0.519 1.9425131835937501 0.48150000000000004 Q 1.9725131835937502 0.44400000000000006 1.9845131835937502 0.378 Q 1.9875131835937503 0.36450000000000005 1.9897631835937502 0.34650000000000003 Q 1.99201318359375 0.3285 1.9905131835937502 0.30600000000000005 Q 1.9860131835937502 0.19800000000000006 1.9365131835937501 0.14775000000000005 Q 1.88701318359375 0.09750000000000003 1.8135131835937501 0.09600000000000009 Q 1.79251318359375 0.09450000000000003 1.7677631835937502 0.09525000000000006 Q 1.7430131835937501 0.09600000000000009 1.72276318359375 0.09600000000000009 Q 1.7025131835937501 0.09600000000000009 1.69501318359375 0.09600000000000009 Q 1.69501318359375 0.09450000000000003 1.6912631835937502 0.0787500000000001 Q 1.68751318359375 0.06299999999999994 1.68376318359375 0.046499999999999986 Q 1.6800131835937502 0.030000000000000027 1.6800131835937502 0.030000000000000027 M 1.69951318359375 0.030000000000000027 L 1.69951318359375 1.08 L 1.4745131835937502 1.08 L 1.4745131835937502 0.030000000000000027 L 1.69951318359375 0.030000000000000027 M 1.4790131835937501 0.9705 L 1.4790131835937501 1.08 L 1.35901318359375 1.08 L 1.35901318359375 1.0650000000000002 Q 1.36051318359375 1.0650000000000002 1.3687631835937502 1.0650000000000002 Q 1.37701318359375 1.0650000000000002 1.37851318359375 1.0650000000000002 Q 1.41751318359375 1.0650000000000002 1.4452631835937502 1.03725 Q 1.47301318359375 1.0095 1.4745131835937502 0.9705 L 1.4790131835937501 0.9705 M 1.4790131835937501 0.13950000000000007 L 1.4745131835937502 0.13950000000000007 Q 1.47301318359375 0.10050000000000003 1.4452631835937502 0.07275000000000009 Q 1.41751318359375 0.04500000000000015 1.37851318359375 0.04500000000000015 Q 1.37701318359375 0.04500000000000015 1.3687631835937502 0.04500000000000015 Q 1.36051318359375 0.04500000000000015 1.35901318359375 0.04500000000000015 L 1.35901318359375 0.030000000000000027 L 1.4790131835937501 0.030000000000000027 L 1.4790131835937501 0.13950000000000007 M 1.69501318359375 0.9705 L 1.69951318359375 0.9705 Q 1.69951318359375 1.0095 1.7280131835937502 1.03725 Q 1.7565131835937502 1.0650000000000002 1.7955131835937501 1.0650000000000002 Q 1.7985131835937502 1.0650000000000002 1.80601318359375 1.0650000000000002 Q 1.8135131835937501 1.0650000000000002 1.8135131835937501 1.0650000000000002 L 1.8135131835937501 1.08 L 1.69501318359375 1.08 L 1.69501318359375 0.9705 M 3.5024831542968755 0.6600000000000001 L 3.5024831542968755 0.9075000000000001 Q 3.466483154296875 0.9525000000000001 3.395233154296875 0.9975 Q 3.3239831542968754 1.0425 3.224233154296875 1.07175 Q 3.1244831542968754 1.101 3.0044831542968753 1.101 Q 2.833483154296875 1.101 2.705983154296875 1.0342500000000001 Q 2.578483154296875 0.9675 2.507983154296875 0.8445 Q 2.437483154296875 0.7215 2.437483154296875 0.5535000000000001 Q 2.437483154296875 0.38550000000000006 2.507233154296875 0.264 Q 2.576983154296875 0.14250000000000007 2.706733154296875 0.07574999999999998 Q 2.836483154296875 0.009000000000000119 3.013483154296875 0.009000000000000119 Q 3.095983154296875 0.009000000000000119 3.1739831542968755 0.0202500000000001 Q 3.2519831542968753 0.031500000000000083 3.317983154296875 0.0495000000000001 Q 3.3839831542968755 0.06750000000000012 3.4274831542968753 0.09150000000000003 L 3.4304831542968754 0.3480000000000001 L 3.416983154296875 0.3480000000000001 Q 3.388483154296875 0.2460000000000001 3.3344831542968754 0.18525000000000003 Q 3.280483154296875 0.12450000000000006 3.209233154296875 0.09825000000000006 Q 3.137983154296875 0.07200000000000006 3.058483154296875 0.07200000000000006 Q 2.9354831542968753 0.07200000000000006 2.8514831542968753 0.1312500000000001 Q 2.767483154296875 0.1905 2.7247331542968753 0.30000000000000004 Q 2.681983154296875 0.4095000000000001 2.681983154296875 0.5625000000000001 Q 2.681983154296875 0.7065000000000001 2.7217331542968752 0.8137500000000001 Q 2.7614831542968754 0.921 2.837983154296875 0.97875 Q 2.9144831542968754 1.0365 3.023983154296875 1.038 Q 3.0794831542968755 1.038 3.131233154296875 1.02075 Q 3.1829831542968754 1.0035 3.221983154296875 0.9705 Q 3.2609831542968752 0.9375 3.277483154296875 0.8895000000000001 L 3.278983154296875 0.6600000000000001 Q 3.278983154296875 0.5925 3.2024831542968752 0.5925 L 3.1784831542968752 0.5925 L 3.1784831542968752 0.5775 L 3.599983154296875 0.5775 L 3.599983154296875 0.5925 L 3.5774831542968752 0.5925 Q 3.4994831542968754 0.5925 3.5024831542968755 0.6600000000000001 M 4.137015380859375 0 L 4.626015380859375 1.0710000000000002 L 4.357515380859375 1.0710000000000002 L 4.045515380859375 0.2895000000000001 L 4.137015380859375 0 M 3.8145153808593752 0.9705 Q 3.8025153808593752 1.0005000000000002 3.8100153808593755 1.0215 Q 3.8175153808593754 1.0425 3.835515380859375 1.05375 Q 3.8535153808593754 1.0650000000000002 3.871515380859375 1.0650000000000002 L 3.8850153808593753 1.0650000000000002 L 3.8850153808593753 1.08 L 3.5640153808593755 1.08 L 3.5640153808593755 1.0650000000000002 Q 3.5640153808593755 1.0650000000000002 3.5707653808593753 1.0650000000000002 Q 3.577515380859375 1.0650000000000002 3.577515380859375 1.0650000000000002 Q 3.612015380859375 1.0650000000000002 3.648765380859375 1.04325 Q 3.6855153808593752 1.0215 3.7095153808593753 0.9705 L 3.8145153808593752 0.9705 M 4.137015380859375 0 L 4.143015380859375 0.18300000000000005 L 3.7710153808593754 1.0755000000000001 L 3.6615153808593752 1.0755000000000001 L 4.050015380859375 0.1965 Q 4.0545153808593755 0.1875 4.065765380859375 0.16275000000000006 Q 4.077015380859375 0.138 4.089765380859375 0.10650000000000004 Q 4.1025153808593755 0.07499999999999996 4.113015380859375 0.04574999999999996 Q 4.123515380859375 0.01649999999999996 4.123515380859375 0 L 4.137015380859375 0 M 4.294515380859376 0.7230000000000001 L 4.294515380859376 0.786 L 3.8535153808593754 0.786 L 3.8535153808593754 0.7230000000000001 L 4.294515380859376 0.7230000000000001 M 4.317015380859376 0.9705 L 4.579515380859375 0.9705 Q 4.605015380859375 1.0215 4.6410153808593755 1.04325 Q 4.677015380859375 1.0650000000000002 4.7115153808593755 1.0650000000000002 Q 4.7115153808593755 1.0650000000000002 4.717515380859375 1.0650000000000002 Q 4.723515380859375 1.0650000000000002 4.723515380859375 1.0650000000000002 L 4.723515380859375 1.08 L 4.246515380859376 1.08 L 4.246515380859376 1.0650000000000002 L 4.260015380859375 1.0650000000000002 Q 4.2900153808593755 1.0650000000000002 4.3125153808593755 1.0402500000000001 Q 4.335015380859375 1.0155 4.317015380859376 0.9705 M 4.8464853515625 0.007500000000000062 L 5.8034853515625 0.9195000000000001 L 5.821485351562501 1.101 L 4.8644853515625 0.1905 L 4.8464853515625 0.007500000000000062 M 4.853985351562501 0.9735 L 4.853985351562501 1.08 L 4.7294853515625 1.08 L 4.7294853515625 1.0650000000000002 Q 4.7294853515625 1.0650000000000002 4.742985351562501 1.0650000000000002 Q 4.7564853515625005 1.0650000000000002 4.757985351562501 1.0650000000000002 Q 4.7954853515625 1.0650000000000002 4.8224853515625 1.038 Q 4.8494853515625005 1.0110000000000001 4.8494853515625005 0.9735 L 4.853985351562501 0.9735 M 5.063985351562501 0.9735 Q 5.063985351562501 1.0110000000000001 5.090985351562501 1.038 Q 5.117985351562501 1.0650000000000002 5.1554853515625005 1.0650000000000002 Q 5.156985351562501 1.0650000000000002 5.1704853515625 1.0650000000000002 Q 5.183985351562501 1.0650000000000002 5.183985351562501 1.0650000000000002 L 5.183985351562501 1.08 L 5.0594853515625005 1.08 L 5.0594853515625005 0.9735 L 5.063985351562501 0.9735 M 4.8464853515625 0.007500000000000062 L 5.062485351562501 0.2370000000000001 L 5.063985351562501 1.08 L 4.8494853515625005 1.08 L 4.8494853515625005 0.19500000000000006 Q 4.8494853515625005 0.1110000000000001 4.8404853515625 0.059250000000000025 Q 4.831485351562501 0.007500000000000062 4.831485351562501 0.007500000000000062 L 4.8464853515625 0.007500000000000062 M 5.816985351562501 0.030000000000000027 L 5.816985351562501 0.909 Q 5.816985351562501 0.9645 5.821485351562501 1.00875 Q 5.8259853515625 1.0530000000000002 5.8304853515625 1.0770000000000002 Q 5.8349853515625005 1.101 5.8349853515625005 1.101 L 5.821485351562501 1.101 L 5.603985351562501 0.8580000000000001 L 5.603985351562501 0.030000000000000027 L 5.816985351562501 0.030000000000000027 M 5.9369853515625 0.030000000000000027 L 5.9369853515625 0.04500000000000015 Q 5.9369853515625 0.04500000000000015 5.9234853515625 0.04500000000000015 Q 5.909985351562501 0.04500000000000015 5.909985351562501 0.04500000000000015 Q 5.8724853515625 0.04500000000000015 5.8454853515625 0.07125000000000004 Q 5.818485351562501 0.09750000000000003 5.816985351562501 0.13650000000000007 L 5.812485351562501 0.13650000000000007 L 5.812485351562501 0.030000000000000027 L 5.9369853515625 0.030000000000000027 M 5.4824853515625005 0.030000000000000027 L 5.606985351562501 0.030000000000000027 L 5.606985351562501 0.13650000000000007 L 5.603985351562501 0.13650000000000007 Q 5.602485351562501 0.09750000000000003 5.5762353515625005 0.07125000000000004 Q 5.5499853515625 0.04500000000000015 5.510985351562501 0.04500000000000015 Q 5.510985351562501 0.04500000000000015 5.4974853515625 0.04500000000000015 Q 5.4839853515625006 0.04500000000000015 5.4824853515625005 0.04500000000000015 L 5.4824853515625005 0.030000000000000027 M 6.364483886718751 0.030000000000000027 L 6.364483886718751 1.08 L 6.13948388671875 1.08 L 6.13948388671875 0.030000000000000027 L 6.364483886718751 0.030000000000000027 M 6.14398388671875 0.9705 L 6.14398388671875 1.08 L 6.02398388671875 1.08 L 6.02398388671875 1.0650000000000002 Q 6.02398388671875 1.0650000000000002 6.033733886718751 1.0650000000000002 Q 6.04348388671875 1.0650000000000002 6.04348388671875 1.0650000000000002 Q 6.082483886718751 1.0650000000000002 6.110233886718751 1.03725 Q 6.13798388671875 1.0095 6.13948388671875 0.9705 L 6.14398388671875 0.9705 M 6.14398388671875 0.13950000000000007 L 6.13948388671875 0.13950000000000007 Q 6.13798388671875 0.10050000000000003 6.110233886718751 0.07275000000000009 Q 6.082483886718751 0.04500000000000015 6.04348388671875 0.04500000000000015 Q 6.04348388671875 0.04500000000000015 6.033733886718751 0.04500000000000015 Q 6.02398388671875 0.04500000000000015 6.02398388671875 0.04500000000000015 L 6.02398388671875 0.030000000000000027 L 6.14398388671875 0.030000000000000027 L 6.14398388671875 0.13950000000000007 M 6.359983886718751 0.9705 L 6.364483886718751 0.9705 Q 6.365983886718751 1.0095 6.393733886718751 1.03725 Q 6.42148388671875 1.0650000000000002 6.460483886718751 1.0650000000000002 Q 6.460483886718751 1.0650000000000002 6.46948388671875 1.0650000000000002 Q 6.478483886718751 1.0650000000000002 6.479983886718751 1.0650000000000002 L 6.479983886718751 1.08 L 6.359983886718751 1.08 L 6.359983886718751 0.9705 M 6.359983886718751 0.13950000000000007 L 6.359983886718751 0.030000000000000027 L 6.479983886718751 0.030000000000000027 L 6.479983886718751 0.04500000000000015 Q 6.478483886718751 0.04500000000000015 6.46948388671875 0.04500000000000015 Q 6.460483886718751 0.04500000000000015 6.460483886718751 0.04500000000000015 Q 6.42148388671875 0.04500000000000015 6.393733886718751 0.07275000000000009 Q 6.365983886718751 0.10050000000000003 6.364483886718751 0.13950000000000007 L 6.359983886718751 0.13950000000000007 M 7.452019775390625 0.009000000000000119 Q 7.452019775390625 0.009000000000000119 7.452019775390625 0.015750000000000153 Q 7.452019775390625 0.022499999999999964 7.452019775390625 0.022499999999999964 L 6.859519775390626 1.08 L 6.612019775390626 1.08 L 6.612019775390626 1.0665 L 7.161019775390626 0.09150000000000003 L 6.6330197753906255 0.09150000000000003 L 6.6330197753906255 0.02849999999999997 L 7.293019775390626 0.02849999999999997 Q 7.323019775390626 0.02849999999999997 7.356769775390625 0.025500000000000078 Q 7.390519775390626 0.022499999999999964 7.416769775390626 0.018000000000000016 Q 7.443019775390626 0.013500000000000068 7.452019775390625 0.009000000000000119 M 7.435519775390626 1.0170000000000001 L 7.426519775390625 1.08 L 6.717019775390626 1.08 L 6.717019775390626 1.0170000000000001 L 7.435519775390626 1.0170000000000001 M 7.494019775390626 0.7785000000000001 L 7.440019775390626 1.08 L 7.165519775390626 1.08 L 7.185019775390626 1.032 L 7.209019775390626 1.0170000000000001 Q 7.308019775390626 1.0170000000000001 7.379269775390625 0.9517500000000001 Q 7.450519775390625 0.8865000000000001 7.479019775390626 0.7785000000000001 L 7.494019775390626 0.7785000000000001 M 6.799519775390626 0.09150000000000003 Q 6.729019775390626 0.09300000000000008 6.688519775390626 0.1342500000000001 Q 6.648019775390626 0.1755000000000001 6.648019775390626 0.2460000000000001 L 6.648019775390626 0.264 L 6.6330197753906255 0.264 L 6.6330197753906255 0.08700000000000008 L 6.799519775390626 0.08700000000000008 L 6.799519775390626 0.09150000000000003 M 6.6330197753906255 0.0015000000000000568 Q 6.648019775390626 0.007500000000000062 6.678769775390625 0.013500000000000068 Q 6.709519775390626 0.019500000000000073 6.747019775390625 0.02400000000000002 Q 6.784519775390626 0.02849999999999997 6.816019775390625 0.02849999999999997 L 6.6330197753906255 0.04500000000000015 L 6.6330197753906255 0.0015000000000000568 M 7.623035888671875 0.030000000000000027 L 7.783535888671876 0.009000000000000119 Q 7.785035888671876 0.03750000000000009 7.777535888671876 0.08400000000000007 Q 7.770035888671876 0.13050000000000006 7.750535888671876 0.17925000000000002 Q 7.731035888671876 0.2280000000000001 7.6965358886718755 0.2692500000000001 Q 7.662035888671876 0.3105000000000001 7.608035888671876 0.33000000000000007 L 7.587035888671876 0.3225 Q 7.609535888671876 0.25650000000000006 7.618535888671876 0.21150000000000002 Q 7.627535888671876 0.1665000000000001 7.628285888671876 0.12525000000000008 Q 7.629035888671876 0.08400000000000007 7.623035888671875 0.030000000000000027 M 8.160010986328126 0 L 8.649010986328125 1.0710000000000002 L 8.380510986328126 1.0710000000000002 L 8.068510986328127 0.2895000000000001 L 8.160010986328126 0 M 7.837510986328126 0.9705 Q 7.825510986328126 1.0005000000000002 7.833010986328126 1.0215 Q 7.840510986328126 1.0425 7.858510986328126 1.05375 Q 7.8765109863281255 1.0650000000000002 7.894510986328126 1.0650000000000002 L 7.908010986328126 1.0650000000000002 L 7.908010986328126 1.08 L 7.587010986328126 1.08 L 7.587010986328126 1.0650000000000002 Q 7.587010986328126 1.0650000000000002 7.593760986328126 1.0650000000000002 Q 7.600510986328126 1.0650000000000002 7.600510986328126 1.0650000000000002 Q 7.635010986328126 1.0650000000000002 7.671760986328126 1.04325 Q 7.708510986328126 1.0215 7.732510986328126 0.9705 L 7.837510986328126 0.9705 M 8.160010986328126 0 L 8.166010986328127 0.18300000000000005 L 7.794010986328126 1.0755000000000001 L 7.684510986328126 1.0755000000000001 L 8.073010986328127 0.1965 Q 8.077510986328125 0.1875 8.088760986328126 0.16275000000000006 Q 8.100010986328126 0.138 8.112760986328126 0.10650000000000004 Q 8.125510986328125 0.07499999999999996 8.136010986328126 0.04574999999999996 Q 8.146510986328126 0.01649999999999996 8.146510986328126 0 L 8.160010986328126 0 M 8.317510986328125 0.7230000000000001 L 8.317510986328125 0.786 L 7.8765109863281255 0.786 L 7.8765109863281255 0.7230000000000001 L 8.317510986328125 0.7230000000000001 M 8.340010986328126 0.9705 L 8.602510986328125 0.9705 Q 8.628010986328126 1.0215 8.664010986328126 1.04325 Q 8.700010986328126 1.0650000000000002 8.734510986328125 1.0650000000000002 Q 8.734510986328125 1.0650000000000002 8.740510986328125 1.0650000000000002 Q 8.746510986328126 1.0650000000000002 8.746510986328126 1.0650000000000002 L 8.746510986328126 1.08 L 8.269510986328125 1.08 L 8.269510986328125 1.0650000000000002 L 8.283010986328126 1.0650000000000002 Q 8.313010986328125 1.0650000000000002 8.335510986328126 1.0402500000000001 Q 8.358010986328125 1.0155 8.340010986328126 0.9705 M 9.12298095703125 0.009000000000000119 Q 9.15298095703125 0.009000000000000119 9.197230957031252 0.01200000000000001 Q 9.241480957031252 0.015000000000000124 9.288730957031252 0.0202500000000001 Q 9.335980957031252 0.025500000000000078 9.371230957031251 0.030750000000000055 Q 9.40648095703125 0.03600000000000003 9.419980957031251 0.04200000000000004 L 9.40198095703125 0.24450000000000005 L 9.386980957031252 0.24450000000000005 Q 9.386980957031252 0.1665000000000001 9.329230957031251 0.11925000000000008 Q 9.271480957031251 0.07200000000000006 9.175480957031251 0.07200000000000006 Q 9.088480957031251 0.07200000000000006 9.035230957031251 0.1140000000000001 Q 8.98198095703125 0.15600000000000003 8.97898095703125 0.21600000000000008 Q 8.97748095703125 0.261 9.007480957031252 0.29400000000000004 Q 9.037480957031251 0.32700000000000007 9.083980957031251 0.35550000000000004 L 9.370480957031251 0.5415000000000001 Q 9.43948095703125 0.5805 9.474730957031252 0.6435000000000001 Q 9.509980957031251 0.7065000000000001 9.505480957031251 0.7905000000000001 Q 9.49798095703125 0.9375 9.39298095703125 1.01925 Q 9.287980957031252 1.101 9.10798095703125 1.101 Q 9.041980957031251 1.101 8.97973095703125 1.08975 Q 8.917480957031252 1.0785 8.869480957031252 1.0582500000000001 Q 8.821480957031252 1.038 8.79298095703125 1.0095 Q 8.78098095703125 0.9765 8.78248095703125 0.93 Q 8.78398095703125 0.8835000000000001 8.79673095703125 0.8355000000000001 Q 8.809480957031251 0.7875000000000001 8.82898095703125 0.756 L 8.84248095703125 0.756 Q 8.83648095703125 0.8325 8.870230957031252 0.89775 Q 8.903980957031251 0.9630000000000001 8.96923095703125 1.00125 Q 9.034480957031251 1.0395 9.12448095703125 1.038 Q 9.223480957031251 1.0365 9.277480957031251 0.9877500000000001 Q 9.331480957031252 0.9390000000000001 9.331480957031252 0.8700000000000001 Q 9.331480957031252 0.8235000000000001 9.30373095703125 0.786 Q 9.275980957031251 0.7485 9.21298095703125 0.7140000000000001 L 8.950480957031251 0.54 Q 8.870980957031252 0.4950000000000001 8.83498095703125 0.4245000000000001 Q 8.798980957031251 0.3540000000000001 8.807980957031251 0.2715000000000001 Q 8.813980957031252 0.1935 8.852980957031251 0.1342500000000001 Q 8.891980957031251 0.07499999999999996 8.960230957031252 0.04200000000000004 Q 9.02848095703125 0.009000000000000119 9.12298095703125 0.009000000000000119 M 9.421480957031251 0.02400000000000002 L 9.418480957031251 0.055500000000000105 L 9.241480957031252 0.055500000000000105 L 9.241480957031252 0.02400000000000002 L 9.421480957031251 0.02400000000000002 M 9.992985351562501 0.009000000000000119 Q 10.0229853515625 0.009000000000000119 10.067235351562502 0.01200000000000001 Q 10.111485351562502 0.015000000000000124 10.158735351562502 0.0202500000000001 Q 10.205985351562502 0.025500000000000078 10.241235351562501 0.030750000000000055 Q 10.276485351562501 0.03600000000000003 10.289985351562501 0.04200000000000004 L 10.2719853515625 0.24450000000000005 L 10.256985351562502 0.24450000000000005 Q 10.256985351562502 0.1665000000000001 10.199235351562502 0.11925000000000008 Q 10.141485351562501 0.07200000000000006 10.045485351562501 0.07200000000000006 Q 9.958485351562501 0.07200000000000006 9.905235351562501 0.1140000000000001 Q 9.8519853515625 0.15600000000000003 9.8489853515625 0.21600000000000008 Q 9.8474853515625 0.261 9.877485351562502 0.29400000000000004 Q 9.907485351562501 0.32700000000000007 9.953985351562501 0.35550000000000004 L 10.240485351562501 0.5415000000000001 Q 10.3094853515625 0.5805 10.344735351562502 0.6435000000000001 Q 10.379985351562501 0.7065000000000001 10.375485351562501 0.7905000000000001 Q 10.367985351562501 0.9375 10.2629853515625 1.01925 Q 10.157985351562502 1.101 9.9779853515625 1.101 Q 9.911985351562501 1.101 9.8497353515625 1.08975 Q 9.787485351562502 1.0785 9.739485351562502 1.0582500000000001 Q 9.691485351562502 1.038 9.6629853515625 1.0095 Q 9.6509853515625 0.9765 9.6524853515625 0.93 Q 9.6539853515625 0.8835000000000001 9.666735351562501 0.8355000000000001 Q 9.679485351562501 0.7875000000000001 9.6989853515625 0.756 L 9.712485351562501 0.756 Q 9.7064853515625 0.8325 9.740235351562502 0.89775 Q 9.773985351562501 0.9630000000000001 9.8392353515625 1.00125 Q 9.904485351562501 1.0395 9.994485351562501 1.038 Q 10.093485351562501 1.0365 10.147485351562501 0.9877500000000001 Q 10.201485351562502 0.9390000000000001 10.201485351562502 0.8700000000000001 Q 10.201485351562502 0.8235000000000001 10.1737353515625 0.786 Q 10.145985351562501 0.7485 10.0829853515625 0.7140000000000001 L 9.820485351562501 0.54 Q 9.740985351562502 0.4950000000000001 9.7049853515625 0.4245000000000001 Q 9.668985351562501 0.3540000000000001 9.677985351562501 0.2715000000000001 Q 9.683985351562502 0.1935 9.722985351562501 0.1342500000000001 Q 9.761985351562501 0.07499999999999996 9.830235351562502 0.04200000000000004 Q 9.8984853515625 0.009000000000000119 9.992985351562501 0.009000000000000119 M 10.291485351562502 0.02400000000000002 L 10.288485351562501 0.055500000000000105 L 10.111485351562502 0.055500000000000105 L 10.111485351562502 0.02400000000000002 L 10.291485351562502 0.02400000000000002 M 11.110489746093752 0.009000000000000119 Q 11.290489746093751 0.009000000000000119 11.423239746093751 0.07574999999999998 Q 11.55598974609375 0.14250000000000007 11.628739746093752 0.264 Q 11.70148974609375 0.38550000000000006 11.70148974609375 0.555 Q 11.70148974609375 0.7230000000000001 11.628739746093752 0.8452500000000001 Q 11.55598974609375 0.9675 11.423239746093751 1.0342500000000001 Q 11.290489746093751 1.101 11.110489746093752 1.101 Q 10.930489746093752 1.101 10.797739746093752 1.0342500000000001 Q 10.66498974609375 0.9675 10.592989746093751 0.8460000000000001 Q 10.52098974609375 0.7245000000000001 10.52098974609375 0.555 Q 10.52098974609375 0.387 10.592989746093751 0.26475000000000004 Q 10.66498974609375 0.14250000000000007 10.797739746093752 0.07574999999999998 Q 10.930489746093752 0.009000000000000119 11.110489746093752 0.009000000000000119 M 11.110489746093752 1.038 Q 11.216989746093752 1.038 11.294239746093751 0.97875 Q 11.37148974609375 0.9195000000000001 11.41273974609375 0.8115000000000001 Q 11.45398974609375 0.7035 11.45398974609375 0.555 Q 11.45398974609375 0.4065000000000001 11.41273974609375 0.2985000000000001 Q 11.37148974609375 0.1905 11.294239746093751 0.1312500000000001 Q 11.216989746093752 0.07200000000000006 11.110489746093752 0.07200000000000006 Q 11.005489746093751 0.07200000000000006 10.928239746093752 0.1312500000000001 Q 10.85098974609375 0.1905 10.80898974609375 0.2985000000000001 Q 10.766989746093751 0.4065000000000001 10.766989746093751 0.555 Q 10.766989746093751 0.7035 10.80898974609375 0.8115000000000001 Q 10.85098974609375 0.9195000000000001 10.928239746093752 0.97875 Q 11.005489746093751 1.038 11.110489746093752 1.038" fill="#404040" fill-rule="nonzero"></path></g><g></g><g clip-path="url(#SvgjsClipPath1008)"><g clip-path="url(#SvgjsClipPath10060257c3e2-4b95-4772-81bf-83739ce35ee8)"><path d=" M 2.2642605729598575 -4.581978062464533 C 2.2642605729598575 -4.962294852887849 2.5888923504551453 -5.23421675053354 2.969182812267144 -5.23421675053354 L 7.639878459279686 -5.23421675053354 C 8.020063606646438 -5.23421675053354 8.319841175061795 -4.962294852887849 8.319841175061795 -4.581978062464533 L 8.319841175061795 -1.9884518764182135 C 8.319841175061795 -1.6181136296827079 8.028199147542303 -1.284925053510534 7.657834572195487 -1.284925053510534 L 7.614918935754503 -1.284925053510534 C 7.482354377791097 -1.284925053510534 7.376329060031688 -1.189799780834905 7.381463139237819 -1.0573405373167555 L 7.386149632051618 -0.9443644661705841 L 7.406291019706435 -0.4916966518578061 C 7.40980462800125 -0.3938331695151529 7.351780616405443 -0.3042067587396371 7.26105264383985 -0.26735514257946313 C 7.17032467127425 -0.23050352641928562 7.066237370753789 -0.25428404997394516 7.000514462142972 -0.3268795450353821 L 6.363019796409525 -0.9537374517981858 L 6.094204674898825 -1.225738335277815 C 6.0500252651147965 -1.2728138923063295 5.988337328807301 -1.284925053510534 5.923805902477944 -1.284925053510534 L 2.966391979467923 -1.284925053510534 C 2.599502780814486 -1.284925053510534 2.2905101984394016 -1.590889845584563 2.272106499131279 -1.9534348233712753 C 2.271421955237129 -1.9660198995791212 2.2642079157372352 -1.993770255903538 2.2642079157372352 -2.006539632390578 Z" fill="#4e888f" transform="matrix(1,0,0,1,0,0)" fill-rule="nonzero"></path></g><g clip-path="url(#SvgjsClipPath10060257c3e2-4b95-4772-81bf-83739ce35ee8)"><path d=" M 7.371668895829197 -1.7325114458398092 L 7.345682556462786 -1.7325114458398092 C 7.294789439668473 -1.7325114458398092 7.253532416865585 -1.7737684686426984 7.253532416865585 -1.8246615854370143 C 7.253532416865585 -1.8755547022313266 7.294789439668473 -1.916811725034215 7.345682556462786 -1.916811725034215 L 7.371668895829197 -1.916811725034215 C 7.582008171612645 -1.916811725034215 7.740611726165089 -2.0802070868457148 7.740611726165089 -2.296865229344395 L 7.740611726165089 -2.3117408947365155 C 7.740611726165089 -2.3626340115308313 7.781868748967978 -2.4038910343337196 7.8327618657622935 -2.4038910343337196 C 7.883654982556607 -2.4038910343337196 7.924912005359495 -2.3626340115308313 7.924912005359495 -2.3117408947365155 L 7.924912005359495 -2.296865229344395 C 7.924912005359495 -1.9804216499676004 7.6818989229360115 -1.7325114458398092 7.371668895829197 -1.7325114458398092 Z" fill="#404040" transform="matrix(1,0,0,1,0,0)" fill-rule="nonzero"></path></g><g clip-path="url(#SvgjsClipPath10060257c3e2-4b95-4772-81bf-83739ce35ee8)"><path d=" M 6.055580602101938 -5.261782806578762 C 6.05807620018176 -5.442631800806929 5.987783178985288 -5.616895665304051 5.860504404405617 -5.745397417294485 C 5.733225629825946 -5.873899169284921 5.559641909322901 -5.945855373150335 5.378777319677441 -5.945089255997679 L 0.7080816726649091 -5.945089255997679 C 0.3277648822415962 -5.945089255997679 -0.0001579716678834704 -5.642073268390761 -0.0001579716678834704 -5.261782806578762 L -0.0001579716678834704 -2.6682566205324423 C -0.0001579716678834704 -2.2978920451856224 0.31962934134572757 -1.9694689476611904 0.6899675880812274 -1.9694689476611904 L 0.7328832245222178 -1.9694689476611904 C 0.8654477824856234 -1.9694689476611904 0.9714731002450315 -1.8720530858012863 0.9663390210389015 -1.739514856449195 L 0.961678856836416 -1.625327669182604 L 0.9415111405702847 -1.1720806254209295 C 0.9379788469907002 -1.0742079677548055 0.9959707871236171 -0.9845547502350396 1.0866861228329212 -0.9476459154700354 C 1.1774014585422252 -0.9107370807050286 1.281512494514636 -0.9344363786013288 1.347314026745056 -1.006973903874055 L 1.9847823638671949 -1.6335948531350395 L 2.2536238139892086 -1.9078863257989438 C 2.297776895161923 -1.9549618828274586 2.3594648314694253 -1.9693636332159348 2.42402258641009 -1.9693636332159348 L 5.381568152476681 -1.9693636332159348 C 5.748457351130117 -1.9693636332159348 6.043390455063798 -2.2729588502717504 6.061794154371927 -2.6354774994471484 C 6.06250502687739 -2.648062575654991 6.055580602101938 -2.673443356961194 6.055580602101938 -2.6861864048369237 Z" fill="#bab9b4" transform="matrix(1,0,0,1,0,0)" fill-rule="nonzero"></path></g><g clip-path="url(#SvgjsClipPath10060257c3e2-4b95-4772-81bf-83739ce35ee8)"><path d=" M 1.884024212895721 -4.240504157438743 C 2.0898470225220205 -4.155249558245798 2.187586848872142 -3.919284743887353 2.10233224967919 -3.7134619342610535 C 2.017077650486238 -3.5076391246347596 1.7811128361277966 -3.409899298284647 1.575290026501503 -3.495153897477593 C 1.3694672168752096 -3.580408496670539 1.271727390525088 -3.8163733110289804 1.356981989718034 -4.022196120655274 C 1.4422365889109858 -4.228018930281573 1.6782014032694272 -4.325758756631689 1.884024212895721 -4.240504157438743 Z" fill="#404040" transform="matrix(1,0,0,1,0,0)" fill-rule="nonzero"></path></g><g clip-path="url(#SvgjsClipPath10060257c3e2-4b95-4772-81bf-83739ce35ee8)"><path d=" M 3.191458131068605 -4.240504416129083 C 3.3972809406949045 -4.155249816936137 3.495020767045026 -3.919285002577698 3.4097661678520743 -3.7134621929513987 C 3.3245115686591222 -3.5076393833250994 3.088546754300681 -3.4098995569749864 2.8827239446743875 -3.4951541561679327 C 2.676901135048094 -3.5804087553608785 2.5791613086979726 -3.8163735697193197 2.6644159078909184 -4.022196379345619 C 2.74967050708387 -4.228019188971919 2.9856353214423117 -4.325759015322029 3.191458131068605 -4.240504416129083 Z" fill="#404040" transform="matrix(1,0,0,1,0,0)" fill-rule="nonzero"></path></g><g clip-path="url(#SvgjsClipPath10060257c3e2-4b95-4772-81bf-83739ce35ee8)"><path d=" M 4.629742758948655 -4.153084839122377 C 4.78727271744229 -3.9955548806287418 4.787272717442296 -3.7401484060237236 4.6297427589486615 -3.582618447530089 C 4.472212800455021 -3.425088489036451 4.216806325850001 -3.4250884890364555 4.059276367356366 -3.5826184475300904 C 3.9017464088627314 -3.7401484060237253 3.9017464088627314 -3.9955548806287435 4.059276367356366 -4.153084839122381 C 4.216806325850001 -4.310614797616016 4.472212800455021 -4.310614797616012 4.629742758948655 -4.153084839122377 Z" fill="#404040" transform="matrix(1,0,0,1,0,0)" fill-rule="nonzero"></path></g></g></g><defs><clipPath id="SvgjsClipPath1008"><path d=" M 0 -5.945089255997679 h 8.319841175061795 v 5.695089255997679 h -8.319841175061795 Z"></path></clipPath><clipPath id="SvgjsClipPath10060257c3e2-4b95-4772-81bf-83739ce35ee8"><path d=" M 0 -5.945089255997679 L 8.319841175061795 -5.945089255997679 L 8.319841175061795 -0.2499999999999991 L 0 -0.2499999999999991 Z"></path></clipPath></defs></svg>